<svg xmlns="http://www.w3.org/2000/svg" width="21.052" height="21.031" viewBox="0 0 21.052 21.031">
  <g id="credit-card" transform="translate(0)">
    <g id="Group_15" data-name="Group 15" transform="translate(0 0)">
      <g id="Group_14" data-name="Group 14" transform="translate(0 0)">
        <path id="Path_24" data-name="Path 24" d="M20.905,7.795,18.553,1.68a2.243,2.243,0,0,0-2.9-1.286l-.05.02L3.849,5.286a2.233,2.233,0,0,0-1.24,2.857l.323.863H2.191A2.193,2.193,0,0,0,0,11.2v7.887a2.193,2.193,0,0,0,2.191,2.191h14.9a2.193,2.193,0,0,0,2.191-2.191V11.2a2.153,2.153,0,0,0-.032-.355l.407-.165A2.252,2.252,0,0,0,20.905,7.795ZM2.191,9.706h14.9a1.488,1.488,0,0,1,1.481,1.4H.71A1.488,1.488,0,0,1,2.191,9.706ZM5.714,7.595,8.057,6.423l.482,1.2L6.2,8.8ZM18.577,19.083a1.491,1.491,0,0,1-1.49,1.49H2.191A1.491,1.491,0,0,1,.7,19.083V14.614H18.577Zm0-5.17H.7v-2.1H18.577Zm.814-3.884-.366.148a2.192,2.192,0,0,0-1.937-1.172H7.351L9.14,8.11a.351.351,0,0,0,.169-.444L8.566,5.809a.351.351,0,0,0-.456-.2l-.027.012L5.112,7.113a.351.351,0,0,0-.169.444l.58,1.449H3.68L3.265,7.9a1.535,1.535,0,0,1,.852-1.963L15.871,1.063a1.54,1.54,0,0,1,2.013.833l.015.037L20.25,8.048A1.548,1.548,0,0,1,19.391,10.029Z" transform="translate(0 -0.243)" fill="#d1d2d2"/>
        <path id="Path_25" data-name="Path 25" d="M264.926,356.151a2.1,2.1,0,1,0-.762-2.875A2.1,2.1,0,0,0,264.926,356.151Zm2.7-3.135a1.388,1.388,0,0,1,.465-.085,1.4,1.4,0,1,1-.465,2.719A2.1,2.1,0,0,0,267.625,353.016Zm-.586.4a1.376,1.376,0,0,1,0,1.835A1.376,1.376,0,0,1,267.039,353.415Zm-1.052-.484a1.387,1.387,0,0,1,.465.085,2.1,2.1,0,0,0,0,2.633,1.4,1.4,0,1,1-.465-2.719Z" transform="translate(-252.318 -336.807)" fill="#d1d2d2"/>
        <rect id="Rectangle_16" data-name="Rectangle 16" width="0.701" height="3.659" transform="translate(15.07 7.874) rotate(-113.966)" fill="#d1d2d2"/>
        <rect id="Rectangle_17" data-name="Rectangle 17" width="5.319" height="0.701" transform="matrix(0.908, -0.419, 0.419, 0.908, 12.553, 6.493)" fill="#d1d2d2"/>
      </g>
    </g>
  </g>
</svg>
