<svg xmlns="http://www.w3.org/2000/svg" width="21.488" height="18.3" viewBox="0 0 21.488 18.3">
  <g id="history" transform="translate(0)">
    <g id="Group_22" data-name="Group 22" transform="translate(0)">
      <g id="Group_21" data-name="Group 21">
        <path id="Path_31" data-name="Path 31" d="M130.729,375.691l-1.017.9a9.343,9.343,0,0,0,1.052,1.012l.859-1.051A7.827,7.827,0,0,1,130.729,375.691Z" transform="translate(-124.218 -361.371)" fill="#fff"/>
        <path id="Path_32" data-name="Path 32" d="M94.014,326.187l-1.246.535a9.033,9.033,0,0,0,.684,1.293l1.143-.727A7.77,7.77,0,0,1,94.014,326.187Z" transform="translate(-88.838 -313.964)" fill="#fff"/>
        <path id="Path_33" data-name="Path 33" d="M16.926,38.861A9.139,9.139,0,0,0,3.28,45.569L.958,43.247,0,44.206l3.868,3.868,3.868-3.868-.958-.958-2.1,2.094A7.786,7.786,0,1,1,8.429,53.52l-.681,1.172a9.149,9.149,0,0,0,9.178-15.83Z" transform="translate(0 -37.627)" fill="#fff"/>
        <path id="Path_34" data-name="Path 34" d="M267.312,109.627v7.455l2.982,2.237.813-1.084-2.44-1.83v-6.777Z" transform="translate(-255.989 -106.577)" fill="#fff"/>
      </g>
    </g>
  </g>
</svg>
