<svg xmlns="http://www.w3.org/2000/svg" width="20.963" height="20.893" viewBox="0 0 20.963 20.893">
  <g id="logout" transform="translate(0)">
    <g id="Group_17" data-name="Group 17" transform="translate(0 0)">
      <g id="Group_16" data-name="Group 16" transform="translate(0 0)">
        <path id="Path_28" data-name="Path 28" d="M10.446,20H2.612a.871.871,0,0,1-.871-.871V3.462a.871.871,0,0,1,.871-.871h7.835a.871.871,0,0,0,0-1.741H2.612A2.615,2.615,0,0,0,0,3.462v15.67a2.615,2.615,0,0,0,2.612,2.612h7.835a.871.871,0,1,0,0-1.741Z" transform="translate(0 -0.85)" fill="#d1d2d2"/>
      </g>
    </g>
    <g id="Group_19" data-name="Group 19" transform="translate(6.964 4.353)">
      <g id="Group_18" data-name="Group 18">
        <path id="Path_29" data-name="Path 29" d="M183.839,112.639l-5.293-5.223a.87.87,0,0,0-1.222,1.24l3.782,3.733H170.971a.871.871,0,0,0,0,1.741h10.136l-3.782,3.733a.87.87,0,1,0,1.222,1.24l5.293-5.223a.87.87,0,0,0,0-1.24Z" transform="translate(-170.1 -107.165)" fill="#d1d2d2"/>
      </g>
    </g>
  </g>
</svg>
