<svg xmlns="http://www.w3.org/2000/svg" width="107.527" height="122.888" viewBox="0 0 107.527 122.888">
  <g id="PASSWORD" transform="translate(-32)">
    <g id="Group_111" data-name="Group 111" transform="translate(32)">
      <g id="Group_110" data-name="Group 110" transform="translate(0)">
        <circle id="Ellipse_7" data-name="Ellipse 7" cx="4.5" cy="4.5" r="4.5" transform="translate(76.764 78.444)"/>
        <path id="Path_58" data-name="Path 58" d="M134.727,86.886a4.8,4.8,0,0,0,4.8-4.8V64.324a19.223,19.223,0,0,0-19.2-19.2h-5.769V28.194C114.557,12.648,101.636,0,85.755,0s-28.8,12.648-28.8,28.194V45.123H51.2A19.223,19.223,0,0,0,32,64.324v39.363a19.223,19.223,0,0,0,19.2,19.2h69.125a19.223,19.223,0,0,0,19.2-19.2,4.8,4.8,0,0,0-9.6,0,9.612,9.612,0,0,1-9.6,9.6H51.2a9.612,9.612,0,0,1-9.6-9.6V64.324a9.612,9.612,0,0,1,9.6-9.6h69.125a9.612,9.612,0,0,1,9.6,9.6V82.086A4.8,4.8,0,0,0,134.727,86.886ZM104.956,45.123h-38.4V28.194c0-10.252,8.614-18.593,19.2-18.593s19.2,8.341,19.2,18.593Z" transform="translate(-32 0)"/>
        <ellipse id="Ellipse_8" data-name="Ellipse 8" cx="5" cy="4.5" rx="5" ry="4.5" transform="translate(39.764 78.444)"/>
        <ellipse id="Ellipse_9" data-name="Ellipse 9" cx="5" cy="4.5" rx="5" ry="4.5" transform="translate(21.764 78.444)"/>
        <ellipse id="Ellipse_10" data-name="Ellipse 10" cx="5" cy="4.5" rx="5" ry="4.5" transform="translate(57.764 78.444)"/>
      </g>
    </g>
  </g>
</svg>
