<svg id="user" xmlns="http://www.w3.org/2000/svg" width="19.275" height="19.275" viewBox="0 0 19.275 19.275">
  <g id="Group_20" data-name="Group 20" transform="translate(0 0)">
    <path id="Path_30" data-name="Path 30" d="M16.452,12.46a9.6,9.6,0,0,0-3.662-2.3,5.572,5.572,0,1,0-6.3,0A9.653,9.653,0,0,0,0,19.275H1.506a8.132,8.132,0,0,1,16.263,0h1.506A9.575,9.575,0,0,0,16.452,12.46ZM9.638,9.638A4.066,4.066,0,1,1,13.7,5.572,4.07,4.07,0,0,1,9.638,9.638Z" transform="translate(0)" fill="#d3d4d4"/>
  </g>
</svg>
