<svg xmlns="http://www.w3.org/2000/svg" width="14.878" height="21.672" viewBox="0 0 14.878 21.672">
  <path id="cocktail-dress" d="M75.613,20.257c-1.112-.519-2.031-3.89-2.293-5.154-.529-3.322-1.519-4.6-2-5.042a8.266,8.266,0,0,0,1.3-3.332.279.279,0,0,0-.015-.165,8.1,8.1,0,0,1-.567-2.56l.9-3.66A.279.279,0,0,0,72.664,0H71.8a.279.279,0,0,0-.271.213L70.673,3.76a5.125,5.125,0,0,0-2.338,1.871A5.126,5.126,0,0,0,66,3.76L65.139.213A.279.279,0,0,0,64.868,0h-.861a.279.279,0,0,0-.271.345l.9,3.66a8.1,8.1,0,0,1-.567,2.56.279.279,0,0,0-.015.165,8.269,8.269,0,0,0,1.3,3.332c-.486.443-1.476,1.72-2,5.042-.262,1.264-1.18,4.634-2.293,5.154a.279.279,0,0,0,.118.532h0a.9.9,0,0,1,.7.361,1.4,1.4,0,0,0,2.182,0,.857.857,0,0,1,1.4,0,1.4,1.4,0,0,0,2.182,0,.857.857,0,0,1,1.4,0,1.4,1.4,0,0,0,2.182,0,.857.857,0,0,1,1.4,0,1.4,1.4,0,0,0,2.182,0,.9.9,0,0,1,.7-.361h0a.279.279,0,0,0,.118-.532ZM72.022.558h.286l-.769,3.137h-.275Zm-7.66,0h.286l.759,3.137h-.275ZM64.614,6.7a8.749,8.749,0,0,0,.569-2.445h.534A4.567,4.567,0,0,1,68.091,6.3a.278.278,0,0,0,.487,0h0a4.6,4.6,0,0,1,2.374-2.044h.533A8.75,8.75,0,0,0,72.056,6.7a7.079,7.079,0,0,1-1.266,3.126H65.88A7.078,7.078,0,0,1,64.614,6.7ZM74.4,20.753a.857.857,0,0,1-1.4,0,1.533,1.533,0,0,0-.838-.5l-.276-2.136a.279.279,0,0,0-.553.071l.268,2.075a1.569,1.569,0,0,0-.783.489.857.857,0,0,1-1.4,0,1.548,1.548,0,0,0-.812-.5v-2.1a.279.279,0,1,0-.558,0v2.1a1.548,1.548,0,0,0-.812.5.857.857,0,0,1-1.4,0,1.573,1.573,0,0,0-.778-.488l.268-2.076a.279.279,0,1,0-.553-.071l-.276,2.135a1.529,1.529,0,0,0-.843.5.856.856,0,0,1-1.4,0,2.044,2.044,0,0,0-.462-.369,7.454,7.454,0,0,0,1.417-2.722A22.773,22.773,0,0,0,63.9,15.21l0-.013c.579-3.641,1.7-4.64,1.943-4.816h4.985c.242.177,1.364,1.175,1.943,4.816l0,.013a22.769,22.769,0,0,0,.676,2.451,7.453,7.453,0,0,0,1.417,2.722A2.044,2.044,0,0,0,74.4,20.753Z" transform="translate(-60.896)" fill="#f44"/>
</svg>
