<svg xmlns="http://www.w3.org/2000/svg" width="17.697" height="17.994" viewBox="0 0 17.697 17.994">
  <g id="_027---Lego" data-name="027---Lego" transform="translate(-0.991 0)">
    <path id="Shape" d="M16,8.9c0,.513.644.9,1.5.9S19,9.412,19,8.9,18.354,8,17.5,8,16,8.387,16,8.9Zm1.5-.3c.581,0,.9.225.9.3s-.319.3-.9.3-.9-.225-.9-.3S16.919,8.6,17.5,8.6Z" transform="translate(-10.508 -5.601)" fill="#f44"/>
    <path id="Shape-2" data-name="Shape" d="M35,33.9c0,.513.644.9,1.5.9s1.5-.387,1.5-.9-.644-.9-1.5-.9S35,33.387,35,33.9Zm2.4,0c0,.075-.319.3-.9.3s-.9-.225-.9-.3.319-.3.9-.3S37.4,33.825,37.4,33.9Z" transform="translate(-23.811 -23.105)" fill="#f44"/>
    <path id="Shape-3" data-name="Shape" d="M18.686,10.5a.287.287,0,0,0-.013-.062.3.3,0,0,0-.171-.36l-1.665-.7a1.508,1.508,0,0,0-1.45-.675c-.214,0,.08.1-1.223-.45-.1-.377-.555-.663-1.176-.733,0-4.918.012-4.695-.023-4.778a.312.312,0,0,0-.157-.159l-1.668-.7A1.509,1.509,0,0,0,9.69,1.2c-.214,0,.08.1-1.223-.45-.258-1-2.693-1-2.951,0-1.3.548-1.008.45-1.223.45a1.511,1.511,0,0,0-1.45.674c-.837.353-1.709.72-1.667.7a.287.287,0,0,0-.146.142c-.052.1-.035-.594-.035,10.176a.3.3,0,0,0,.184.276c12.025,5.063,11.378,4.821,11.511,4.821.1,0-.276.142,5.814-2.422a.234.234,0,0,0,.129-.114c.075-.113.054.248.054-4.96Zm-5.7,2.451,5.1-2.146v4.294l-5.1,2.146Zm3.3-3.351c0,.075-.319.3-.9.3s-.9-.225-.9-.3.319-.3.9-.3S16.287,9.521,16.287,9.6Zm-.9.9a1.709,1.709,0,0,0,1.359-.513l.868.366-4.925,2.074L7.763,10.348l.868-.366A1.709,1.709,0,0,0,9.99,10.5c1.464,0,1.925-1.02,1.077-1.537l.3-.128a2.093,2.093,0,0,0,2.634,0l.3.128C13.454,9.48,13.941,10.5,15.387,10.5ZM11.213,8.246c-1.3.548-1.008.45-1.223.45a1.511,1.511,0,0,0-1.45.674L7.291,9.9V5.45l5.1-2.146v4.21c-.621.07-1.08.356-1.176.733ZM9.99,9.3c.581,0,.9.225.9.3s-.319.3-.9.3-.9-.225-.9-.3S9.409,9.3,9.99,9.3ZM1.593,3.3l5.1,2.146V9.9L1.593,7.75ZM13.588,8.4c0,.075-.319.3-.9.3s-.9-.225-.9-.3.319-.3.9-.3S13.588,8.321,13.588,8.4Zm-3-6.3c0,.075-.319.3-.9.3s-.9-.225-.9-.3.319-.3.9-.3S10.589,2.024,10.589,2.1ZM6.991.6c.581,0,.9.225.9.3s-.319.3-.9.3-.9-.225-.9-.3S6.41.6,6.991.6Zm-1.317.734a2.093,2.093,0,0,0,2.634,0l.3.128A.766.766,0,0,0,8.19,2.1c0,1.006,2.231,1.216,2.858.387l.867.366L6.991,4.925,2.066,2.851l.867-.366c.627.828,2.858.62,2.858-.387a.766.766,0,0,0-.422-.637ZM4.292,1.8c.581,0,.9.225.9.3s-.319.3-.9.3-.9-.225-.9-.3S3.712,1.8,4.292,1.8Zm-2.7,6.6,5.281,2.223,5.515,2.322V17.24l-10.8-4.545Z" transform="translate(0 0)" fill="#f44"/>
    <path id="Shape-4" data-name="Shape" d="M20,45.346l-6.6-2.858a.3.3,0,1,0-.238.55l6.6,2.857a.3.3,0,1,0,.238-.55Z" transform="translate(-8.394 -29.728)" fill="#f44"/>
    <path id="Shape-5" data-name="Shape" d="M6.319,39.413l-.9-.39a.3.3,0,0,0-.24.55l.9.39a.3.3,0,0,0,.24-.55Z" transform="translate(-2.806 -27.304)" fill="#f44"/>
  </g>
</svg>
