<svg xmlns="http://www.w3.org/2000/svg" width="18.499" height="18.499" viewBox="0 0 18.499 18.499">
  <path id="Path_35" data-name="Path 35" d="M9.249,0A9.243,9.243,0,0,0,.165,10.981l-.035.042.049.04A9.249,9.249,0,1,0,9.249,0Zm7.878,6c-.012,3-2.689,3.64-3.813,3.776a19.007,19.007,0,0,0,.466-7.742A8.576,8.576,0,0,1,17.127,6Zm-4.16-4.419a18.117,18.117,0,0,1-.4,8.157c-2.168-.575-2.476-2.154-2.886-4.3A12.3,12.3,0,0,0,8.092.808,8.568,8.568,0,0,1,9.249.727,8.467,8.467,0,0,1,12.967,1.582ZM7.312.952A11.221,11.221,0,0,1,8.969,5.573c.407,2.134.8,4.154,3.369,4.859a12.876,12.876,0,0,1-.684,1.56A26.767,26.767,0,0,1,2.329,4.286,8.539,8.539,0,0,1,7.312.952ZM1.906,4.932A27.638,27.638,0,0,0,11.3,12.626a11.566,11.566,0,0,1-.663.986,10.275,10.275,0,0,0-4-.909A9.352,9.352,0,0,1,.847,10.665,8.478,8.478,0,0,1,1.906,4.932Zm-.8,6.827a10.139,10.139,0,0,0,5.472,1.668,9.827,9.827,0,0,1,3.594.768,12.25,12.25,0,0,1-3.943,3.021A8.562,8.562,0,0,1,1.1,11.759Zm6.1,5.764a12.734,12.734,0,0,0,3.632-2.989,2.745,2.745,0,0,1,1.352,1.442,1.666,1.666,0,0,1-.312,1.379,8.5,8.5,0,0,1-4.672.168Zm5.66-.559a2.1,2.1,0,0,0,.024-1.184,3.354,3.354,0,0,0-1.6-1.825q.366-.5.671-1.018a21.8,21.8,0,0,0,4.132,1.383A8.577,8.577,0,0,1,12.866,16.964Zm3.666-3.292A21.041,21.041,0,0,1,12.316,12.3a13.571,13.571,0,0,0,.758-1.77A5.882,5.882,0,0,0,16.71,9.011,3.841,3.841,0,0,0,17.6,7.562a8.512,8.512,0,0,1-1.071,6.109Z" fill="#f44"/>
</svg>
