<svg xmlns="http://www.w3.org/2000/svg" width="16.603" height="19.286" viewBox="0 0 16.603 19.286">
  <g id="XMLID_1738_" transform="translate(-35.616)">
    <g id="XMLID_220_" transform="translate(35.616)">
      <path id="XMLID_221_" d="M328.467,287.72a.377.377,0,1,0,.266.11A.379.379,0,0,0,328.467,287.72Z" transform="translate(-317.073 -276.882)" fill="#f44"/>
      <path id="XMLID_297_" d="M134.873,44a4.752,4.752,0,0,0-4.746,4.746v1.722a4.746,4.746,0,0,0,6.571,4.381.377.377,0,0,0-.291-.7,3.988,3.988,0,0,1-4.216-.73l2.522-2.522a.377.377,0,1,0-.533-.533l-2.5,2.5a3.977,3.977,0,0,1-.716-1.57l5.969-5.968a4.024,4.024,0,0,1,1.187,1.1l-2.508,2.508a.377.377,0,1,0,.533.533l2.366-2.366a3.97,3.97,0,0,1,.354,1.643v1.722A3.958,3.958,0,0,1,138.559,52a.377.377,0,1,0,.695.291,4.707,4.707,0,0,0,.366-1.827V48.746A4.752,4.752,0,0,0,134.873,44Zm-3.993,6.318V48.746a3.993,3.993,0,0,1,5.333-3.761Z" transform="translate(-126.567 -42.343)" fill="#f44"/>
      <path id="XMLID_300_" d="M98.934,6.4a6.4,6.4,0,1,0-12.807,0V8.126a6.42,6.42,0,0,0,4.239,6.028.551.551,0,0,1,.363.6l-.324,2.05a2.147,2.147,0,1,0,4.241,0l-.323-2.046a.551.551,0,0,1,.363-.6,6.418,6.418,0,0,0,4.248-6.031V6.4Zm-.753,1.722a5.663,5.663,0,0,1-3.748,5.322,1.3,1.3,0,0,0-.854,1.428l.323,2.046a1.394,1.394,0,1,1-2.753,0l.324-2.05a1.305,1.305,0,0,0-.852-1.428,5.664,5.664,0,0,1-3.74-5.319V6.4a5.65,5.65,0,1,1,11.3,0V8.126Z" transform="translate(-84.224)" fill="#f44"/>
      <path id="XMLID_303_" d="M246.377,444.5a.377.377,0,1,0,.266.11A.379.379,0,0,0,246.377,444.5Z" transform="translate(-238.075 -427.756)" fill="#f44"/>
      <path id="XMLID_304_" d="M421.378,320.042a.316.316,0,0,1-.316-.316.377.377,0,0,0-.753,0,.316.316,0,0,1-.316.316.377.377,0,0,0,0,.753.316.316,0,0,1,.316.316.377.377,0,0,0,.753,0,.316.316,0,0,1,.316-.316.377.377,0,0,0,0-.753Z" transform="translate(-405.151 -307.32)" fill="#f44"/>
      <path id="XMLID_305_" d="M37.754,1.069a.377.377,0,0,0-.377-.377.316.316,0,0,1-.316-.316.377.377,0,0,0-.753,0,.316.316,0,0,1-.316.316.377.377,0,1,0,0,.753.316.316,0,0,1,.316.316.377.377,0,0,0,.753,0,.316.316,0,0,1,.316-.316A.377.377,0,0,0,37.754,1.069Z" transform="translate(-35.616)" fill="#f44"/>
    </g>
  </g>
</svg>
