<svg xmlns="http://www.w3.org/2000/svg" width="15.798" height="18.237" viewBox="0 0 15.798 18.237">
  <path id="Men_Clothing" data-name="Men Clothing" d="M41.659,5.432A13.621,13.621,0,0,0,40.5,1.989,12.956,12.956,0,0,0,37.112.016.228.228,0,0,0,36.9.04c-.017.012-.5.487-2.31.487h0C32.78.527,32.3.05,32.28.04a.228.228,0,0,0-.212-.024,10.9,10.9,0,0,0-3.391,1.972,12.681,12.681,0,0,0-1.156,3.443,43.141,43.141,0,0,0-.763,11.43v1.147a.228.228,0,0,0,.228.228h2.071a.228.228,0,0,0,.225-.188l.209-1.146.418-1.762c.062.249.132.489.212.718l.207,1.184a.228.228,0,0,0,.225.189h8.075a.228.228,0,0,0,.225-.189l.207-1.184c.079-.228.15-.468.212-.718l.418,1.762L39.9,18.05a.229.229,0,0,0,.225.188h2.071a.228.228,0,0,0,.228-.228V16.862A43.14,43.14,0,0,0,41.659,5.432ZM34.59.984h0a5.77,5.77,0,0,0,2.127-.31,2.214,2.214,0,0,1-2.127,1.2h0a2.214,2.214,0,0,1-2.127-1.2A5.77,5.77,0,0,0,34.59.984ZM35.082,2.3l-.492.526L34.1,2.3a3.367,3.367,0,0,0,.492.036h0A3.368,3.368,0,0,0,35.082,2.3ZM28.867,17.781H27.215v-.7h1.779ZM29.8,5.788a37.768,37.768,0,0,0-.1,8.266l-.61,2.575H27.205a42.493,42.493,0,0,1,.754-11.061A15.046,15.046,0,0,1,28.984,2.39a1.677,1.677,0,0,1,.947,1.625C29.931,4.366,29.874,4.994,29.8,5.788Zm.942,10.988-.13-.744h7.951l-.13.744Zm8.282-2.756s-.2,1.085-.353,1.555H30.506c-.153-.47-.352-1.552-.353-1.556a37.237,37.237,0,0,1,.1-8.19c.073-.806.131-1.442.131-1.814a2.138,2.138,0,0,0-1.1-1.979A12.663,12.663,0,0,1,31.956.558a2.174,2.174,0,0,0,1.276,1.481l1.191,1.275a.228.228,0,0,0,.323.011l1.2-1.286A2.174,2.174,0,0,0,37.224.557,12.652,12.652,0,0,1,39.9,2.036a2.138,2.138,0,0,0-1.1,1.979c0,.372.058,1.008.13,1.814A37.228,37.228,0,0,1,39.026,14.019Zm2.939,3.761H40.313l-.127-.7h1.779v.7Zm.01-1.152H40.093l-.61-2.575a37.76,37.76,0,0,0-.1-8.266c-.072-.794-.129-1.422-.129-1.773A1.677,1.677,0,0,1,40.2,2.39C40.615,3.257,42.372,7.483,41.975,16.629Z" transform="translate(-26.691 0)" fill="#f44"/>
</svg>
