<svg xmlns="http://www.w3.org/2000/svg" width="20.96" height="20.958" viewBox="0 0 20.96 20.958">
  <g id="Automobile" transform="translate(0.25 0.225)">
    <path id="Path_36" data-name="Path 36" d="M68.791,61.025a7.791,7.791,0,1,0,7.791,7.791A7.8,7.8,0,0,0,68.791,61.025Zm0,1.2a6.6,6.6,0,0,1,6.483,5.394,5.334,5.334,0,0,1-4.3-1.451,3,3,0,0,0-4.371,0,4.712,4.712,0,0,1-3.435,1.451h-.862a6.6,6.6,0,0,1,6.483-5.394Zm-6.113,9.06a3.606,3.606,0,0,1,4.3,3.872A6.623,6.623,0,0,1,62.678,71.284Zm5.482,4.1a4.8,4.8,0,0,0-5.829-5.245,6.6,6.6,0,0,1-.132-1.317,6.59,6.59,0,0,0,5.281-1.829,1.8,1.8,0,0,1,2.623,0,6.581,6.581,0,0,0,5.281,1.829,6.6,6.6,0,0,1-.132,1.317,4.8,4.8,0,0,0-5.829,5.245A6.578,6.578,0,0,1,68.16,75.379Zm2.444-.223a3.606,3.606,0,0,1,4.3-3.872A6.623,6.623,0,0,1,70.6,75.156Z" transform="translate(-58.563 -58.563)" fill="none" stroke="#f44" stroke-width="0.5"/>
    <path id="Path_37" data-name="Path 37" d="M214.6,227.823a1.8,1.8,0,1,0-1.8,1.8A1.8,1.8,0,0,0,214.6,227.823Zm-1.8.6a.6.6,0,1,1,.6-.6A.6.6,0,0,1,212.8,228.422Z" transform="translate(-202.569 -216.97)" fill="none" stroke="#f44" stroke-width="0.5"/>
    <path id="Path_38" data-name="Path 38" d="M17.453,3.029a10.224,10.224,0,1,0-7.225,17.453A10.229,10.229,0,0,0,17.453,3.029ZM10.229,19.284a9.03,9.03,0,1,1,9.03-9.03A9.04,9.04,0,0,1,10.229,19.284Z" fill="none" stroke="#f44" stroke-width="0.5"/>
  </g>
</svg>
