<svg xmlns="http://www.w3.org/2000/svg" width="22.421" height="14.285" viewBox="0 0 22.421 14.285">
  <g id="Home_Improvement_Tools" data-name="Home Improvement Tools" transform="translate(0 -84.009)">
    <path id="Path_39" data-name="Path 39" d="M113.706,316.995a.7.7,0,1,0,.7.7A.7.7,0,0,0,113.706,316.995Z" transform="translate(-107.532 -221.704)" fill="#f44"/>
    <path id="Path_40" data-name="Path 40" d="M20.121,93.693a2.287,2.287,0,0,0-1.276.387h-.48l-.821-1.094a1.143,1.143,0,0,0-.91-.455h-.825a.913.913,0,0,0,0-.436h.051A1.139,1.139,0,0,0,17,90.957v-.9a1.524,1.524,0,0,0-1.357-1.516l-4.649-.517A1.525,1.525,0,0,0,9.3,89.544v1.413A1.139,1.139,0,0,0,10.436,92.1h.051a.913.913,0,0,0,0,.436H9.661a1.144,1.144,0,0,0-.728.264L2.015,84.422A1.138,1.138,0,1,0,.261,85.871l6.532,7.908a2.3,2.3,0,1,0,.657,4.128H18.845a2.3,2.3,0,1,0,1.276-4.213ZM8.149,94.815l.009-.008h9.993a2.3,2.3,0,0,0,0,2.373H8.144a2.295,2.295,0,0,0,0-2.365Zm1.875-3.858V89.544a.8.8,0,0,1,.8-.8.829.829,0,0,1,.091.005l4.649.517a.8.8,0,0,1,.711.794v.9a.412.412,0,0,1-.412.412H10.436A.412.412,0,0,1,10.024,90.957Zm1.162,1.356A.218.218,0,0,1,11.4,92.1h3.487a.218.218,0,1,1,0,.436H11.4A.218.218,0,0,1,11.186,92.313Zm5.448.944a.414.414,0,0,1,.329.165l.494.659H9.635a1.14,1.14,0,0,0-.24-.725.414.414,0,0,1,.267-.1ZM.728,85.107a.412.412,0,0,1,.727-.223l7.361,8.91a.413.413,0,0,1,.093.286H7.985L.821,85.408A.408.408,0,0,1,.728,85.107ZM4.6,95.994a1.574,1.574,0,1,1,1.574,1.574A1.576,1.576,0,0,1,4.6,95.994Zm15.52,1.574a1.574,1.574,0,1,1,1.574-1.574A1.576,1.576,0,0,1,20.121,97.567Z" transform="translate(0)" fill="#f44"/>
    <path id="Path_41" data-name="Path 41" d="M401.706,316.995a.7.7,0,1,0,.7.7A.7.7,0,0,0,401.706,316.995Z" transform="translate(-381.585 -221.704)" fill="#f44"/>
  </g>
</svg>
