<svg xmlns="http://www.w3.org/2000/svg" width="15.312" height="19.079" viewBox="0 0 15.312 19.079">
  <g id="Jewelary_Watches" data-name="Jewelary Watches" transform="translate(-53.483)">
    <g id="Group_20" data-name="Group 20" transform="translate(53.483 0)">
      <path id="Path_27" data-name="Path 27" d="M55,81.79l.317.892a.143.143,0,0,0,.074.084l.792.357a.158.158,0,0,1,0,.279l-.792.357a.143.143,0,0,0-.074.084L55,84.734a.129.129,0,0,1-.248,0l-.317-.892a.143.143,0,0,0-.074-.084l-.792-.357a.158.158,0,0,1,0-.279l.792-.357a.143.143,0,0,0,.074-.084l.317-.892A.129.129,0,0,1,55,81.79Z" transform="translate(-53.483 -78.652)" fill="#f44"/>
      <path id="Path_28" data-name="Path 28" d="M351.34.07l.235.661a.106.106,0,0,0,.055.062l.588.265a.117.117,0,0,1,0,.207l-.588.265a.106.106,0,0,0-.055.062l-.235.661a.1.1,0,0,1-.184,0l-.235-.661a.106.106,0,0,0-.055-.062l-.588-.265a.117.117,0,0,1,0-.207l.588-.265a.106.106,0,0,0,.055-.062l.235-.661a.1.1,0,0,1,.184,0Z" transform="translate(-339.158 0)" fill="#f44"/>
      <circle id="Ellipse_4" data-name="Ellipse 4" cx="0.692" cy="0.692" r="0.692" transform="translate(13.502 6.132) rotate(-67.486)" fill="#f44"/>
      <path id="Path_29" data-name="Path 29" d="M102.116,27.787a.3.3,0,1,1-.3-.3A.3.3,0,0,1,102.116,27.787Z" transform="translate(-99.729 -26.464)" fill="#f44"/>
    </g>
    <g id="Group_21" data-name="Group 21" transform="translate(54.326 1.324)">
      <path id="Path_30" data-name="Path 30" d="M84.83,40.567l1.063-2a1.15,1.15,0,0,0-.1-1.24l-1.037-1.348a1.155,1.155,0,0,0-.91-.448H81.462a1.155,1.155,0,0,0-.91.448l-1.037,1.348a1.15,1.15,0,0,0-.1,1.24l1.067,2a6.545,6.545,0,1,0,4.352-.008Zm-2.021-4.26.735,1.46H81.76l.735-1.46Zm.7,1.923L82.834,40.2l-.169,0c-.066,0-.131,0-.2,0l-.676-1.972H83.51Zm-.2,2,.686-2h1.2l-1.108,2.081a.381.381,0,0,1-.025.04,6.516,6.516,0,0,0-.753-.119Zm.826-3.777,1.01,1.313H84.062l-.735-1.46h.515A.378.378,0,0,1,84.14,36.454Zm-2.977,0a.378.378,0,0,1,.3-.147h.515l-.735,1.46H80.153Zm.048,3.857L80.1,38.23h1.2l.687,2a6.506,6.506,0,0,0-.751.122A.374.374,0,0,1,81.212,40.311Zm1.453,12.207a5.773,5.773,0,1,1,5.773-5.773,5.78,5.78,0,0,1-5.773,5.773Z" transform="translate(-76.12 -35.535)" fill="#f44"/>
      <path id="Path_31" data-name="Path 31" d="M129.317,209.156a4.74,4.74,0,1,0,4.74,4.74A4.745,4.745,0,0,0,129.317,209.156Zm0,8.708a3.968,3.968,0,1,1,3.968-3.968A3.972,3.972,0,0,1,129.317,217.864Z" transform="translate(-122.771 -202.686)" fill="#f44"/>
    </g>
  </g>
</svg>
