<svg xmlns="http://www.w3.org/2000/svg" width="16.67" height="16.67" viewBox="0 0 16.67 16.67">
  <g id="Bags" transform="translate(-16 -16)">
    <path id="Path_33" data-name="Path 33" d="M16.058,32.561a.278.278,0,0,0,.22.108H32.392a.278.278,0,0,0,.269-.349,44.126,44.126,0,0,1-1.38-9.931A.278.278,0,0,0,31,22.112h-.833v-.278a5.834,5.834,0,0,0-11.669,0v.278h-.833a.278.278,0,0,0-.278.278,44.126,44.126,0,0,1-1.38,9.931A.278.278,0,0,0,16.058,32.561ZM27.113,21.279H21.556a.278.278,0,0,0-.278.278v.556H20.167v-.278a4.167,4.167,0,0,1,8.335,0v.278H27.391v-.556A.278.278,0,0,0,27.113,21.279Zm-.278.556v2.5A1.947,1.947,0,0,1,24.89,26.28H23.779a1.947,1.947,0,0,1-1.945-1.945v-2.5ZM29.058,23.5h.556v.718l-.278.278-.278-.278Zm-4.723-6.946a5.285,5.285,0,0,1,5.279,5.279v1.111h-.556V21.834a4.723,4.723,0,1,0-9.446,0v1.111h-.556V21.834A5.285,5.285,0,0,1,24.335,16.556ZM19.056,23.5h.556v.718l-.278.278-.278-.278Zm-1.116-.833h.56v1.667a.278.278,0,0,0,.081.2l.556.556a.278.278,0,0,0,.393,0l.556-.556a.278.278,0,0,0,.081-.2V22.668h1.111v1.667a2.5,2.5,0,0,0,2.5,2.5H24.89a2.5,2.5,0,0,0,2.5-2.5V22.668H28.5v1.667a.278.278,0,0,0,.081.2l.556.556a.278.278,0,0,0,.393,0l.556-.556a.278.278,0,0,0,.081-.2V22.668h.56a45.4,45.4,0,0,0,1.3,9.446h-15.4A45.4,45.4,0,0,0,17.94,22.668Z" transform="translate(0)" fill="#f44"/>
    <path id="Path_34" data-name="Path 34" d="M216.278,217.667H218.5a.278.278,0,0,0,.278-.278v-1.111A.278.278,0,0,0,218.5,216h-2.223a.278.278,0,0,0-.278.278v1.111A.278.278,0,0,0,216.278,217.667Zm.278-1.111h1.667v.556h-1.667Z" transform="translate(-193.054 -193.054)" fill="#f44"/>
  </g>
</svg>
