<svg xmlns="http://www.w3.org/2000/svg" width="10.4" height="18.2" viewBox="0 0 10.4 18.2">
  <g id="Phone" transform="translate(-110.833 0.1)">
    <g id="Group_9" data-name="Group 9" transform="translate(114.233 0.9)">
      <g id="Group_8" data-name="Group 8">
        <path id="Path_18" data-name="Path 18" d="M208.1,25.6h-3a.3.3,0,0,0,0,.6h3a.3.3,0,0,0,0-.6Z" transform="translate(-204.801 -25.6)" fill="none" stroke="#f44" stroke-width="0.2"/>
      </g>
    </g>
    <g id="Group_11" data-name="Group 11" transform="translate(119.033 0.9)">
      <g id="Group_10" data-name="Group 10" transform="translate(0)">
        <path id="Path_19" data-name="Path 19" d="M341.934,25.6h-.3a.3.3,0,1,0,0,.6h.3a.3.3,0,0,0,0-.6Z" transform="translate(-341.334 -25.6)" fill="none" stroke="#f44" stroke-width="0.2"/>
      </g>
    </g>
    <g id="Group_13" data-name="Group 13" transform="translate(114.833 15.3)">
      <g id="Group_12" data-name="Group 12" transform="translate(0)">
        <path id="Path_20" data-name="Path 20" d="M223.44,435.2h-.745a.829.829,0,0,0-.828.828v.145a.828.828,0,0,0,.827.827h.745a.828.828,0,0,0,.828-.827v-.145A.829.829,0,0,0,223.44,435.2Zm.227.973a.228.228,0,0,1-.227.227h-.745a.228.228,0,0,1-.228-.227v-.145a.228.228,0,0,1,.228-.228h.745a.228.228,0,0,1,.228.228Z" transform="translate(-221.867 -435.2)" fill="none" stroke="#f44" stroke-width="0.2"/>
      </g>
    </g>
    <g id="Group_15" data-name="Group 15" transform="translate(110.933)">
      <g id="Group_14" data-name="Group 14" transform="translate(0)">
        <path id="Path_21" data-name="Path 21" d="M120.049,0h-8.031a1.086,1.086,0,0,0-1.085,1.084V16.915A1.086,1.086,0,0,0,112.018,18h8.031a1.086,1.086,0,0,0,1.084-1.084V1.084A1.086,1.086,0,0,0,120.049,0Zm.484,16.915a.485.485,0,0,1-.484.484h-8.031a.485.485,0,0,1-.484-.484V1.084A.485.485,0,0,1,112.018.6h8.031a.485.485,0,0,1,.484.484V16.915Z" transform="translate(-110.933)" fill="none" stroke="#f44" stroke-width="0.2"/>
      </g>
    </g>
    <g id="Group_17" data-name="Group 17" transform="translate(110.933 1.8)">
      <g id="Group_16" data-name="Group 16">
        <path id="Path_22" data-name="Path 22" d="M120.834,51.2h-9.6a.3.3,0,0,0-.3.3V64.1a.3.3,0,0,0,.3.3h9.6a.3.3,0,0,0,.3-.3V51.5A.3.3,0,0,0,120.834,51.2Zm-.3,12.6h-9v-12h9Z" transform="translate(-110.934 -51.2)" fill="none" stroke="#f44" stroke-width="0.2"/>
      </g>
    </g>
  </g>
</svg>
