<svg xmlns="http://www.w3.org/2000/svg" width="17.199" height="17.199" viewBox="0 0 17.199 17.199">
  <path id="Computer_Office_Security" data-name="Computer Office Security" d="M17.922,9.045h-2.5V8.49a.277.277,0,0,0-.277-.277h-.383l-.277-.555h1.77a.832.832,0,0,0,.832-.832V2.387a.832.832,0,0,0-.832-.832h-6.1a.832.832,0,0,0-.832.832V6.826a.832.832,0,0,0,.832.832h1.77l-.277.555h-.383a.277.277,0,0,0-.277.277v.555H8.212V7.658a.277.277,0,0,0-.277-.277H7.5l.636-.636-.392-.392L7.1,6.988V6.271H6.548V7.38H6.271a.277.277,0,0,0-.277.277V9.045H4.051V8.213a.277.277,0,0,0-.277-.277H3.219V5.665a.832.832,0,0,0,.555-.781.819.819,0,0,0-.083-.356L5.3,2.918l.416.416V4.606a.277.277,0,0,0,.171.256.274.274,0,0,0,.106.021.277.277,0,0,0,.2-.081L8.409,2.583a.277.277,0,0,0-.2-.474H6.94L5.912,1.081a.277.277,0,0,0-.392,0l-.832.832a.277.277,0,0,0,0,.392l.22.22L3.3,4.135a.819.819,0,0,0-.357-.083.83.83,0,0,0-.277,1.613v2.27H2.11a.277.277,0,0,0-.277.277v.832H1.277A.277.277,0,0,0,1,9.322v1.664a.277.277,0,0,0,.277.277H2.11v6.658a.277.277,0,0,0,.277.277H3.5a.277.277,0,0,0,.277-.255l.533-6.68H14.891l.533,6.68a.277.277,0,0,0,.277.255h1.11a.277.277,0,0,0,.277-.277V11.264h.832a.277.277,0,0,0,.277-.277V9.322A.277.277,0,0,0,17.922,9.045ZM6.271,3.937v-.6l.67-.67h.6ZM5.716,1.67l.717.717-.44.44L5.276,2.11ZM2.942,4.606a.277.277,0,1,1-.277.277A.277.277,0,0,1,2.942,4.606Zm7.212-2.5h6.1a.277.277,0,0,1,.277.277V5.439H9.877V2.387A.277.277,0,0,1,10.154,2.11ZM9.877,6.826V5.993h6.658v.832a.277.277,0,0,1-.277.277h-6.1A.277.277,0,0,1,9.877,6.826Zm2.668.832h1.322l.277.555H12.268Zm-1,1.11H14.87v.277H11.541ZM6.548,7.935h1.11v1.11H6.548ZM2.387,8.49H3.5v.555H2.387Zm.854,9.154H2.664v-6.38H3.751Zm13.294,0h-.576l-.51-6.38h1.087Zm1.11-6.935H1.555V9.6H17.644Z" transform="translate(-1 -1)" fill="#f44"/>
</svg>
