<svg xmlns="http://www.w3.org/2000/svg" width="17.811" height="13.655" viewBox="0 0 17.811 13.655">
  <g id="Consumer_Electronices" data-name="Consumer Electronices" transform="translate(0 -54)">
    <g id="Group_19" data-name="Group 19" transform="translate(0 54)">
      <g id="Group_18" data-name="Group 18" transform="translate(0 0)">
        <path id="Path_23" data-name="Path 23" d="M16.326,56H1.484A1.486,1.486,0,0,0,0,57.484v9.5a1.477,1.477,0,0,0,.594,1.18v1.492H2.375V68.467H15.436v1.187h1.781V68.163a1.477,1.477,0,0,0,.594-1.18v-9.5A1.486,1.486,0,0,0,16.326,56ZM1.781,69.061H1.187v-.594h.594Zm14.842,0h-.594v-.594h.594Zm.594-2.078a.891.891,0,0,1-.891.891H1.484a.891.891,0,0,1-.891-.891v-9.5a.891.891,0,0,1,.891-.891H16.326a.891.891,0,0,1,.891.891Z" transform="translate(0 -56)" fill="#f44"/>
        <path id="Path_24" data-name="Path 24" d="M48,110.234v2.672H58.686V104H48Zm.594-5.64h9.5v5.64h-9.5Zm0,6.234h9.5v1.484h-9.5Z" transform="translate(-46.219 -102.219)" fill="#f44"/>
        <path id="Path_25" data-name="Path 25" d="M361.484,104a1.484,1.484,0,1,0,1.484,1.484A1.484,1.484,0,0,0,361.484,104Zm.84,1.781a.89.89,0,1,1-1.136-1.133v.836h.594v-.836A.888.888,0,0,1,362.324,105.781Z" transform="translate(-346.642 -102.219)" fill="#f44"/>
        <path id="Path_26" data-name="Path 26" d="M361.484,200a1.484,1.484,0,1,0,1.484,1.484A1.484,1.484,0,0,0,361.484,200Zm.84,1.781a.89.89,0,1,1-1.136-1.133v.836h.594v-.836A.888.888,0,0,1,362.324,201.781Z" transform="translate(-346.642 -194.657)" fill="#f44"/>
        <rect id="Rectangle_16" data-name="Rectangle 16" width="3" height="1" transform="translate(12.905 8.827)" fill="#f44"/>
        <rect id="Rectangle_17" data-name="Rectangle 17" width="3" transform="translate(12.905 10.827)" fill="#f44"/>
      </g>
    </g>
  </g>
</svg>
