<svg id="Layer_1" enable-background="new 0 0 512 512" height="512" viewBox="0 0 512 512" width="512" xmlns="http://www.w3.org/2000/svg"><g><path d="m240.003 392c74.991 0 136-61.01 136-136s-61.009-136-136-136-136 61.01-136 136 61.009 136 136 136zm-8-255.727v15.727c0 4.418 3.582 8 8 8s8-3.582 8-8v-15.727c59.806 3.957 107.77 51.92 111.727 111.727h-15.727c-4.418 0-8 3.582-8 8s3.582 8 8 8h15.727c-3.957 59.807-51.921 107.771-111.727 111.727v-15.727c0-4.418-3.582-8-8-8s-8 3.582-8 8v15.727c-59.806-3.957-107.77-51.92-111.727-111.727h15.727c4.418 0 8-3.582 8-8s-3.582-8-8-8h-15.727c3.956-59.807 51.92-107.771 111.727-111.727z"/><path d="m426.003 216h-14.588c-1.497-6.418-3.355-12.698-5.535-18.826l11.197-6.462c10.505-6.053 14.125-19.531 8.064-30.052l-10.001-17.321c-6.082-10.532-19.522-14.133-30.059-8.047l-11.272 6.511c-2.441-2.856-4.973-5.632-7.589-8.326l-12.256-67.407c-1.752-9.644-9.616-16.836-19.158-17.914l-4.684-28.103c-1.937-11.619-11.893-20.053-23.673-20.053h-132.892c-11.781 0-21.737 8.434-23.673 20.054l-4.684 28.102c-9.542 1.078-17.406 8.27-19.158 17.912l-12.257 67.408c-66.436 68.42-66.331 176.735 0 245.047l12.257 67.406c1.752 9.644 9.616 16.836 19.158 17.914l4.684 28.103c1.936 11.62 11.892 20.054 23.673 20.054h132.892c11.781 0 21.737-8.434 23.673-20.054l4.684-28.103c9.542-1.078 17.406-8.27 19.158-17.912l12.257-67.408c2.616-2.694 5.148-5.47 7.589-8.326 11.26 6.504 14.894 9.472 22.246 9.472 7.593 0 14.987-3.912 19.085-11.009l10.004-17.327c6.057-10.514 2.438-23.992-8.063-30.042l-11.202-6.465c2.18-6.128 4.038-12.408 5.535-18.826h14.588c12.131 0 22-9.869 22-22v-36c0-12.131-9.869-22-22-22zm-32.919-66.853c2.856-1.653 6.532-.697 8.2 2.192l9.996 17.313c1.653 2.87.67 6.546-2.196 8.198l-9.313 5.375c-4.515-9.738-9.887-19-16.032-27.681zm-227.418-126.462c.646-3.873 3.964-6.685 7.891-6.685h132.892c3.927 0 7.246 2.812 7.891 6.685l4.219 25.315h-157.112zm-17.983 41.315h184.64c2.899 0 5.38 2.073 5.899 4.932l8.599 47.292c-63.104-48.34-150.583-48.3-213.636 0l8.599-47.294c.519-2.857 3-4.93 5.899-4.93zm92.32 32c88.224 0 160 71.775 160 160s-71.776 160-160 160-160-71.775-160-160 71.776-160 160-160zm74.337 393.315c-.646 3.873-3.964 6.685-7.891 6.685h-132.892c-3.927 0-7.246-2.812-7.891-6.685l-4.219-25.315h157.112zm17.983-41.315c-20.124 0-164.53 0-184.64 0-2.899 0-5.38-2.073-5.899-4.932l-8.599-47.292c63.104 48.34 150.583 48.3 213.636 0l-8.599 47.294c-.52 2.857-3.001 4.93-5.899 4.93zm76.766-112.849c2.862 1.649 3.845 5.325 2.196 8.188l-9.999 17.319c-1.663 2.879-5.33 3.853-8.201 2.193l-9.345-5.398c6.145-8.68 11.518-17.942 16.032-27.68zm22.914-61.151c0 3.309-2.691 6-6 6h-11.643c2.189-15.982 2.193-31.991 0-48h11.643c3.309 0 6 2.691 6 6z"/><path d="m234.346 261.657c3.125 3.124 8.189 3.123 11.313 0l64-64c3.125-3.125 3.125-8.189 0-11.314-3.124-3.123-8.189-3.123-11.313 0l-58.343 58.344-34.343-34.344c-3.124-3.123-8.189-3.123-11.313 0-3.125 3.125-3.125 8.189 0 11.314z"/></g></svg>