<svg id="GOOGLE" xmlns="http://www.w3.org/2000/svg" width="36.394" height="36.394" viewBox="0 0 36.394 36.394">
  <path id="Path_63" data-name="Path 63" d="M8.53,111.289a9.608,9.608,0,0,1,1.36-4.939v-6.135H3.755a18.206,18.206,0,0,0,0,22.147H9.89v-6.135A9.608,9.608,0,0,1,8.53,111.289Z" transform="translate(0 -93.091)" fill="#fbbd00"/>
  <path id="Path_64" data-name="Path 64" d="M200.265,374.314,196,378.579l4.265,4.265a18.059,18.059,0,0,0,11.074-3.755v-6.128H205.21A9.666,9.666,0,0,1,200.265,374.314Z" transform="translate(-182.068 -346.45)" fill="#0f9d58"/>
  <path id="Path_65" data-name="Path 65" d="M58.958,325.477l-6.135,6.135a18.486,18.486,0,0,0,1.575,1.794,18.078,18.078,0,0,0,12.867,5.33v-8.53A9.671,9.671,0,0,1,58.958,325.477Z" transform="translate(-49.068 -302.341)" fill="#31aa52"/>
  <path id="Path_66" data-name="Path 66" d="M274.2,201.495a18.356,18.356,0,0,0-.3-3.3l-.16-.874H256v8.53h8.633a9.624,9.624,0,0,1-3.688,3.955l6.128,6.128a18.486,18.486,0,0,0,1.794-1.575A18.078,18.078,0,0,0,274.2,201.495Z" transform="translate(-237.803 -183.298)" fill="#3c79e6"/>
  <path id="Path_67" data-name="Path 67" d="M207.1,11.361l.754.754,6.032-6.031-.754-.754A18.078,18.078,0,0,0,200.265,0L196,4.265l4.265,4.265A9.6,9.6,0,0,1,207.1,11.361Z" transform="translate(-182.068)" fill="#cf2d48"/>
  <path id="Path_68" data-name="Path 68" d="M67.264,8.53V0A18.078,18.078,0,0,0,54.4,5.33a18.472,18.472,0,0,0-1.575,1.794l6.135,6.135A9.671,9.671,0,0,1,67.264,8.53Z" transform="translate(-49.067 0)" fill="#eb4132"/>
</svg>
