<svg xmlns="http://www.w3.org/2000/svg" width="10.438" height="13.65" viewBox="0 0 10.438 13.65">
  <g id="Group_271" data-name="Group 271" transform="translate(-321.781 -190.175)">
    <g id="trash-bin" transform="translate(261.781 190.175)" opacity="0.55">
      <path id="Path_20" data-name="Path 20" d="M240,240h.8v4.416H240Z" transform="translate(-175.182 -233.577)"/>
      <path id="Path_21" data-name="Path 21" d="M180,240h.8v4.416H180Z" transform="translate(-116.788 -233.577)"/>
      <path id="Path_22" data-name="Path 22" d="M300,240h.8v4.416H300Z" transform="translate(-233.577 -233.577)"/>
      <g id="Group_270" data-name="Group 270">
        <path id="Path_23" data-name="Path 23" d="M70.438,1.606H67.226V1.2a1.206,1.206,0,0,0-1.2-1.2H64.416a1.206,1.206,0,0,0-1.2,1.2v.4H60V4.015h.836l.738,8.491a1.2,1.2,0,0,0,1.2,1.144h4.883a1.2,1.2,0,0,0,1.2-1.144L69.6,4.015h.836Zm-6.423-.4a.4.4,0,0,1,.4-.4h1.606a.4.4,0,0,1,.4.4v.4H64.015ZM60.8,2.409h8.832v.8H60.8Zm7.259,10.053a.4.4,0,0,1-.4.385H62.777a.4.4,0,0,1-.4-.385l-.734-8.447H68.8Z"/>
      </g>
    </g>
  </g>
</svg>
