<svg xmlns="http://www.w3.org/2000/svg" xmlns:xlink="http://www.w3.org/1999/xlink" width="25.229" height="25.229" viewBox="0 0 25.229 25.229">
  <defs>
    <linearGradient id="linear-gradient" x1="-0.019" y1="0.5" x2="1.126" y2="0.5" gradientUnits="objectBoundingBox">
      <stop offset="0" stop-color="#814aa0"/>
      <stop offset="0.47" stop-color="#5b3374"/>
      <stop offset="1" stop-color="#192a7d"/>
    </linearGradient>
    <linearGradient id="linear-gradient-2" x1="-0.623" y1="0.5" x2="1.473" y2="0.5" xlink:href="#linear-gradient"/>
    <linearGradient id="linear-gradient-3" x1="-1.424" y1="0.5" x2="0.918" y2="0.5" xlink:href="#linear-gradient"/>
    <linearGradient id="linear-gradient-4" x1="-0.019" y1="0.5" x2="1.126" y2="0.5" gradientUnits="objectBoundingBox">
      <stop offset="0" stop-color="#fff9df"/>
      <stop offset="0.593" stop-color="#ffe177"/>
      <stop offset="1" stop-color="#feb237"/>
    </linearGradient>
    <linearGradient id="linear-gradient-5" x1="0.243" y1="0.5" x2="1.419" y2="0.5" gradientUnits="objectBoundingBox">
      <stop offset="0" stop-color="#ffe177"/>
      <stop offset="1" stop-color="#feb237"/>
    </linearGradient>
    <linearGradient id="linear-gradient-6" x1="-0.242" y1="0.5" x2="5.043" y2="0.5" xlink:href="#linear-gradient-5"/>
    <linearGradient id="linear-gradient-7" x1="-2.298" y1="0.5" x2="5.277" y2="0.5" xlink:href="#linear-gradient-5"/>
    <linearGradient id="linear-gradient-8" x1="-0.763" y1="0.5" x2="1.336" y2="0.5" xlink:href="#linear-gradient-5"/>
    <linearGradient id="linear-gradient-9" x1="-0.763" y1="0.5" x2="1.338" y2="0.5" xlink:href="#linear-gradient-5"/>
    <linearGradient id="linear-gradient-10" x1="-0.224" y1="0.5" x2="1.9" y2="0.5" xlink:href="#linear-gradient-5"/>
    <linearGradient id="linear-gradient-11" x1="-0.019" y1="0.5" x2="1.126" y2="0.5" xlink:href="#linear-gradient"/>
    <linearGradient id="linear-gradient-12" x1="-0.949" y1="0.5" x2="0.881" y2="0.5" xlink:href="#linear-gradient"/>
  </defs>
  <g id="NIGHT" transform="translate(0 0)">
    <path id="Path_42" data-name="Path 42" d="M228.264,238.626a2.608,2.608,0,0,0-.34.023A4.538,4.538,0,0,0,219.2,237.6a3.1,3.1,0,0,0,.213,6.187h8.852a2.579,2.579,0,0,0,0-5.157Z" transform="translate(-205.614 -223.099)" fill="url(#linear-gradient)"/>
    <g id="Group_46" data-name="Group 46" transform="translate(10.701 11.61)">
      <path id="Path_43" data-name="Path 43" d="M218,299.841a3.1,3.1,0,0,0,1.416,5.852h6.293v-.049A8.023,8.023,0,0,1,218,299.841Z" transform="translate(-216.315 -296.619)" fill="url(#linear-gradient-2)"/>
      <path id="Path_44" data-name="Path 44" d="M345.885,238.626a2.608,2.608,0,0,0-.34.023,4.538,4.538,0,0,0-5.488-3.83,4.542,4.542,0,0,1,3.45,3.489.4.4,0,0,0,.4.318h0a2.579,2.579,0,1,1,0,5.157h1.937a2.606,2.606,0,0,0,2.621-2.534A2.578,2.578,0,0,0,345.885,238.626Z" transform="translate(-333.936 -234.71)" fill="url(#linear-gradient-3)"/>
    </g>
    <path id="Path_45" data-name="Path 45" d="M47.746,20.634A8.02,8.02,0,1,1,51.4,5.473a.826.826,0,0,0,1-1.281,12.614,12.614,0,1,0,0,16.85.826.826,0,0,0-.99-1.289A7.985,7.985,0,0,1,47.746,20.634Z" transform="translate(-28.891 0)" fill="url(#linear-gradient-4)"/>
    <path id="Path_46" data-name="Path 46" d="M40.881,68.944h5.965a1.738,1.738,0,1,0-.229-3.46,3.06,3.06,0,0,0-1.992-2.473,12.654,12.654,0,0,0-3.812,5.931Z" transform="translate(-38.793 -59.894)" fill="url(#linear-gradient-5)"/>
    <g id="Group_47" data-name="Group 47" transform="translate(6.057 0)">
      <circle id="Ellipse_5" data-name="Ellipse 5" cx="2.106" cy="2.106" r="2.106" transform="translate(0 18.157)" fill="url(#linear-gradient-6)"/>
      <circle id="Ellipse_6" data-name="Ellipse 6" cx="1.47" cy="1.47" r="1.47" transform="translate(5.734 1.315)" fill="url(#linear-gradient-7)"/>
      <path id="Path_47" data-name="Path 47" d="M268.55,1.913a1.132,1.132,0,0,0,1.925.659,1.127,1.127,0,0,1,1.452-.1A10.333,10.333,0,0,1,273.8,4.192a.807.807,0,0,1,.129.906,7.978,7.978,0,0,1,.862.381.824.824,0,0,0,.994-1.282A12.581,12.581,0,0,0,266.441,0c-.351,0-.7.012-1.042.039a12.549,12.549,0,0,1,3.6.824,1.131,1.131,0,0,0-.45,1.05Z" transform="translate(-258.327 0)" fill="url(#linear-gradient-8)"/>
      <path id="Path_48" data-name="Path 48" d="M274.729,397.429a7.974,7.974,0,0,1-.858.379.8.8,0,0,1-.132.91,12.581,12.581,0,0,1-8.4,4.148q.491.038.992.039a12.581,12.581,0,0,0,9.386-4.187A.826.826,0,0,0,274.729,397.429Z" transform="translate(-258.272 -377.676)" fill="url(#linear-gradient-9)"/>
      <path id="Path_49" data-name="Path 49" d="M159.762,108.85a8.021,8.021,0,0,1,0-15.919,8.1,8.1,0,0,0-.987-.06,8,8,0,0,0-8.017,7.8h0a1.47,1.47,0,0,0-.1,2.936h.015a.877.877,0,0,1,.76.514,8.029,8.029,0,0,0,8.331,4.725Z" transform="translate(-147.954 -88.276)" fill="url(#linear-gradient-10)"/>
    </g>
    <path id="Path_50" data-name="Path 50" d="M8.053,36.966a1.75,1.75,0,0,0-.229.016,3.058,3.058,0,0,0-5.879-.709,2.087,2.087,0,0,0,.143,4.169H8.053a1.738,1.738,0,0,0,0-3.475Z" transform="translate(0 -32.629)" fill="url(#linear-gradient-11)"/>
    <path id="Path_51" data-name="Path 51" d="M81.126,36.966a1.751,1.751,0,0,0-.229.016,3.058,3.058,0,0,0-4.02-2.49,3.062,3.062,0,0,1,2,2.265.267.267,0,0,0,.265.21h0a1.738,1.738,0,0,1,0,3.475h1.945a1.765,1.765,0,0,0,1.772-1.772A1.738,1.738,0,0,0,81.126,36.966Z" transform="translate(-73.073 -32.629)" fill="url(#linear-gradient-12)"/>
  </g>
</svg>
