<svg xmlns="http://www.w3.org/2000/svg" width="13.756" height="15.721" viewBox="0 0 13.756 15.721">
  <g id="PASSWORD" transform="translate(-32)">
    <g id="Group_111" data-name="Group 111" transform="translate(32)">
      <g id="Group_110" data-name="Group 110" transform="translate(0)">
        <circle id="Ellipse_7" data-name="Ellipse 7" cx="0.5" cy="0.5" r="0.5" transform="translate(9.878 9.86)" fill="#4f3175"/>
        <path id="Path_58" data-name="Path 58" d="M45.141,11.115a.614.614,0,0,0,.614-.614V8.229A2.459,2.459,0,0,0,43.3,5.772h-.738V3.607a3.685,3.685,0,0,0-7.369,0V5.772h-.736A2.459,2.459,0,0,0,32,8.229v5.036a2.459,2.459,0,0,0,2.456,2.456H43.3a2.459,2.459,0,0,0,2.456-2.456.614.614,0,0,0-1.228,0A1.23,1.23,0,0,1,43.3,14.492H34.456a1.23,1.23,0,0,1-1.228-1.228V8.229A1.23,1.23,0,0,1,34.456,7H43.3a1.23,1.23,0,0,1,1.228,1.228V10.5A.614.614,0,0,0,45.141,11.115ZM41.333,5.772H36.42V3.607a2.458,2.458,0,0,1,4.913,0Z" transform="translate(-32 0)" fill="#4f3175"/>
        <circle id="Ellipse_8" data-name="Ellipse 8" cx="0.5" cy="0.5" r="0.5" transform="translate(4.878 9.86)" fill="#4f3175"/>
        <circle id="Ellipse_9" data-name="Ellipse 9" cx="0.5" cy="0.5" r="0.5" transform="translate(2.878 9.86)" fill="#4f3175"/>
        <circle id="Ellipse_10" data-name="Ellipse 10" cx="0.5" cy="0.5" r="0.5" transform="translate(7.878 9.86)" fill="#4f3175"/>
      </g>
    </g>
  </g>
</svg>
