<svg xmlns="http://www.w3.org/2000/svg" width="10.438" height="13.65" viewBox="0 0 10.438 13.65">
  <path id="Path_23" data-name="Path 23" d="M70.438,1.606H67.226V1.2a1.206,1.206,0,0,0-1.2-1.2H64.416a1.206,1.206,0,0,0-1.2,1.2v.4H60V4.015h.836l.738,8.491a1.2,1.2,0,0,0,1.2,1.144h4.883a1.2,1.2,0,0,0,1.2-1.144L69.6,4.015h.836Zm-6.423-.4a.4.4,0,0,1,.4-.4h1.606a.4.4,0,0,1,.4.4v.4H64.015ZM60.8,2.409h8.832v.8H60.8Zm7.259,10.053a.4.4,0,0,1-.4.385H62.777a.4.4,0,0,1-.4-.385l-.734-8.447H68.8Z" transform="translate(-60)"/>
</svg>
