<svg id="sun" xmlns="http://www.w3.org/2000/svg" width="29" height="29" viewBox="0 0 29 29">
  <g id="Group_4" data-name="Group 4">
    <circle id="Ellipse_3" data-name="Ellipse 3" cx="8.203" cy="8.203" r="8.203" transform="translate(6.297 6.297)" fill="#ffd347"/>
    <path id="Path_5" data-name="Path 5" d="M248.7,3.22a.438.438,0,0,1-.438-.438V.438a.438.438,0,0,1,.876,0V2.782A.438.438,0,0,1,248.7,3.22Z" transform="translate(-234.201)" fill="#ffd347"/>
    <path id="Path_6" data-name="Path 6" d="M125.742,36.167a.438.438,0,0,1-.38-.219l-1.172-2.03a.438.438,0,0,1,.759-.438l1.172,2.03a.438.438,0,0,1-.379.657Z" transform="translate(-117.1 -31.377)" fill="#ffd347"/>
    <path id="Path_7" data-name="Path 7" d="M35.728,126.179a.436.436,0,0,1-.219-.059l-2.03-1.172a.438.438,0,1,1,.438-.759l2.03,1.172a.438.438,0,0,1-.22.818Z" transform="translate(-31.377 -117.1)" fill="#ffd347"/>
    <path id="Path_8" data-name="Path 8" d="M2.782,249.139H.438a.438.438,0,0,1,0-.876H2.782a.438.438,0,1,1,0,.876Z" transform="translate(0 -234.201)" fill="#ffd347"/>
    <path id="Path_9" data-name="Path 9" d="M33.7,353.755a.438.438,0,0,1-.219-.818l2.03-1.172a.438.438,0,1,1,.438.759l-2.03,1.172A.437.437,0,0,1,33.7,353.755Z" transform="translate(-31.376 -331.786)" fill="#ffd347"/>
    <path id="Path_10" data-name="Path 10" d="M124.569,430.338a.438.438,0,0,1-.379-.657l1.172-2.029a.438.438,0,0,1,.759.438l-1.172,2.03A.438.438,0,0,1,124.569,430.338Z" transform="translate(-117.101 -403.222)" fill="#ffd347"/>
    <path id="Path_11" data-name="Path 11" d="M248.7,458.37a.438.438,0,0,1-.438-.438v-2.344a.438.438,0,1,1,.876,0v2.344A.438.438,0,0,1,248.7,458.37Z" transform="translate(-234.201 -429.37)" fill="#ffd347"/>
    <path id="Path_12" data-name="Path 12" d="M353.317,430.339a.438.438,0,0,1-.38-.219l-1.172-2.03a.438.438,0,1,1,.759-.438l1.172,2.03a.438.438,0,0,1-.379.657Z" transform="translate(-331.785 -403.223)" fill="#ffd347"/>
    <path id="Path_13" data-name="Path 13" d="M429.9,353.754a.436.436,0,0,1-.219-.059l-2.029-1.172a.438.438,0,1,1,.438-.759l2.03,1.172a.438.438,0,0,1-.22.818Z" transform="translate(-403.223 -331.785)" fill="#ffd347"/>
    <path id="Path_14" data-name="Path 14" d="M457.932,249.139h-2.344a.438.438,0,1,1,0-.876h2.344a.438.438,0,1,1,0,.876Z" transform="translate(-429.37 -234.201)" fill="#ffd347"/>
    <path id="Path_15" data-name="Path 15" d="M427.871,126.18a.438.438,0,0,1-.219-.818l2.03-1.172a.438.438,0,1,1,.438.759l-2.03,1.172A.437.437,0,0,1,427.871,126.18Z" transform="translate(-403.222 -117.101)" fill="#ffd347"/>
    <path id="Path_16" data-name="Path 16" d="M352.144,36.166a.438.438,0,0,1-.379-.657l1.172-2.03a.438.438,0,1,1,.759.438l-1.172,2.03A.438.438,0,0,1,352.144,36.166Z" transform="translate(-331.786 -31.376)" fill="#ffd347"/>
  </g>
  <path id="Path_17" data-name="Path 17" d="M241.363,111.18a8.309,8.309,0,0,0-.879.047,8.2,8.2,0,0,1,0,16.312,8.2,8.2,0,1,0,.879-16.358Z" transform="translate(-226.863 -104.883)" fill="#ffbe31"/>
</svg>
