<svg xmlns="http://www.w3.org/2000/svg" width="13.01" height="15.45" viewBox="0 0 13.01 15.45">
  <g id="USER_PROFILE_2" data-name="USER PROFILE 2" transform="translate(-1.559)">
    <path id="Path_56" data-name="Path 56" d="M14.569,17.974H13a4.871,4.871,0,0,0-4.94-4.789,4.871,4.871,0,0,0-4.939,4.789H1.559A6.438,6.438,0,0,1,8.064,11.62,6.438,6.438,0,0,1,14.569,17.974Z" transform="translate(0 -2.524)" fill="#4f3175"/>
    <path id="Path_57" data-name="Path 57" d="M8.679,8.587a4.293,4.293,0,1,1,4.294-4.293A4.3,4.3,0,0,1,8.679,8.587Zm0-7.021a2.728,2.728,0,1,0,2.729,2.728A2.731,2.731,0,0,0,8.679,1.566Z" transform="translate(-0.614)" fill="#4f3175"/>
  </g>
</svg>
