<svg xmlns="http://www.w3.org/2000/svg" width="48.72" height="17.51" viewBox="0 0 48.72 17.51">
  <g id="VISA_CARD" data-name="VISA CARD" transform="translate(-0.01 -124.103)">
    <path id="Path_78" data-name="Path 78" d="M0,203.322Z" transform="translate(0.01 -66.871)" fill="#f3f2f2"/>
    <g id="Group_163" data-name="Group 163" transform="translate(8.622 129.523)">
      <path id="Path_71" data-name="Path 71" d="M175.483,187.086l1.984-11.713h3.211l-1.983,11.713Z" transform="translate(-164.9 -175.184)" fill="#293688"/>
      <path id="Path_72" data-name="Path 72" d="M230.88,174.139a8.34,8.34,0,0,0-2.879-.492c-3.174,0-5.41,1.589-5.429,3.866-.018,1.683,1.6,2.621,2.815,3.182,1.25.573,1.67.941,1.664,1.453-.008.785-1,1.144-1.922,1.144a6.777,6.777,0,0,1-3.023-.615l-.414-.187-.451,2.622a10.214,10.214,0,0,0,3.578.625c3.376,0,5.568-1.57,5.593-4,.012-1.332-.844-2.346-2.7-3.182-1.123-.541-1.81-.9-1.8-1.452,0-.487.582-1.007,1.839-1.007a5.955,5.955,0,0,1,2.4.449l.287.135.436-2.539Z" transform="translate(-205.653 -173.647)" fill="#293688"/>
      <path id="Path_73" data-name="Path 73" d="M307.112,175.373a1.6,1.6,0,0,0-1.664,1l-4.759,10.716h3.4l.661-1.795h4.062l.377,1.795h3.023l-2.645-11.713h-2.456Zm-1.46,7.575c.265-.674,1.279-3.274,1.279-3.274-.018.031.264-.678.426-1.117l.217,1.009.743,3.382h-2.666Z" transform="translate(-276.41 -175.184)" fill="#293688"/>
      <path id="Path_74" data-name="Path 74" d="M83.465,183.4l-.283-1.606a9.15,9.15,0,0,0-4.444-4.912l2.837,10.2h3.4l5.1-11.713h-3.4Z" transform="translate(-78.739 -175.184)" fill="#293688"/>
    </g>
    <g id="Group_164" data-name="Group 164" transform="translate(5.131 129.711)">
      <path id="Path_75" data-name="Path 75" d="M46.823,175.373v.189c4.03.969,6.827,3.419,7.935,6.234l-1.164-5.424a1.38,1.38,0,0,0-1.48-1Z" transform="translate(-46.823 -175.373)" fill="#f7981d"/>
    </g>
    <path id="Path_77" data-name="Path 77" d="M445.388,124.1Z" transform="translate(-396.658)" fill="#293688"/>
  </g>
</svg>
